<svg width="212" height="274" viewBox="0 0 212 274" fill="none" xmlns="http://www.w3.org/2000/svg">
<path d="M33.0737 249H27.9537V235.56H11.3137V249H6.19375V217.64H11.3137V234.92L15.1537 231.08H27.9537V217.64H33.0737V249ZM79.1287 249H74.0087V217.64H79.1287V249ZM148.234 217.64L136.266 249H127.946L116.234 217.64H121.994L131.594 244.648H132.874L142.474 217.64H148.234ZM207.726 249H185.326V226.6L189.806 222.12H185.326V217.64H207.726V222.12H190.446V234.92L194.286 231.08H207.726V235.56H190.446V244.52H207.726V249Z" fill="white"/>
<path fill-rule="evenodd" clip-rule="evenodd" d="M153.693 1.22144C154.296 0.740329 154.5 0.329491 154.5 0H155.5C155.5 0.775079 155.019 1.44267 154.316 2.00312C153.606 2.56953 152.59 3.09374 151.329 3.58042C148.803 4.55577 145.175 5.42434 140.729 6.15032C131.828 7.60358 119.549 8.5 106 8.5C92.4506 8.5 80.1724 7.60358 71.2712 6.15032C66.8246 5.42434 63.1974 4.55577 60.6706 3.58042C59.4098 3.09374 58.3936 2.56953 57.6837 2.00312C56.9812 1.44267 56.5 0.775079 56.5 0H57.5C57.5 0.329491 57.7043 0.740329 58.3073 1.22144C58.9029 1.69659 59.812 2.17707 61.0307 2.64751C63.463 3.58636 67.0117 4.44165 71.4323 5.16339C80.2656 6.60556 92.4874 7.5 106 7.5C119.513 7.5 131.734 6.60556 140.568 5.16339C144.988 4.44165 148.537 3.58636 150.969 2.64751C152.188 2.17707 153.097 1.69659 153.693 1.22144ZM161.15 10C161.15 10.5406 160.898 11.15 160.248 11.8314C159.593 12.5164 158.586 13.2181 157.215 13.9127C154.476 15.3005 150.457 16.5748 145.42 17.6542C135.36 19.8098 121.423 21.15 106 21.15C90.5774 21.15 76.6399 19.8098 66.5801 17.6542C61.5433 16.5748 57.5241 15.3005 54.7849 13.9127C53.414 13.2181 52.4066 12.5164 51.7524 11.8314C51.1018 11.15 50.85 10.5406 50.85 10H49.15C49.15 11.1163 49.6817 12.1245 50.523 13.0054C51.3608 13.8828 52.5538 14.6881 54.0166 15.4292C56.9449 16.9127 61.1268 18.2242 66.2239 19.3164C76.4321 21.5039 90.4947 22.85 106 22.85C121.505 22.85 135.568 21.5039 145.776 19.3164C150.873 18.2242 155.055 16.9127 157.983 15.4292C159.446 14.6881 160.639 13.8828 161.477 13.0054C162.318 12.1245 162.85 11.1163 162.85 10H161.15ZM169.995 25.6709C170.765 24.9867 171 24.4278 171 24H173C173 25.2291 172.312 26.2878 171.323 27.166C170.331 28.0478 168.925 28.8517 167.208 29.5897C163.767 31.0689 158.849 32.378 152.848 33.4692C140.829 35.6544 124.266 37 106 37C87.7335 37 71.1708 35.6544 59.1521 33.4692C53.1509 32.378 48.2329 31.0689 44.7917 29.5897C43.0749 28.8517 41.6691 28.0478 40.6767 27.166C39.6883 26.2878 39 25.2291 39 24H41C41 24.4278 41.2351 24.9867 42.0051 25.6709C42.771 26.3514 43.9585 27.0545 45.5815 27.7522C48.8199 29.1443 53.5674 30.421 59.5098 31.5014C71.3784 33.6593 87.8157 35 106 35C124.184 35 140.622 33.6593 152.49 31.5014C158.433 30.421 163.18 29.1443 166.418 27.7522C168.042 27.0545 169.229 26.3514 169.995 25.6709ZM180.85 38C180.85 38.2992 180.657 38.811 179.753 39.5079C178.873 40.1877 177.502 40.8932 175.625 41.5936C171.886 42.9896 166.409 44.2681 159.561 45.3494C145.883 47.509 126.946 48.85 106 48.85C85.0541 48.85 66.1169 47.509 52.4392 45.3494C45.5914 44.2681 40.1142 42.9896 36.3746 41.5936C34.4984 40.8932 33.1275 40.1877 32.2466 39.5079C31.3434 38.811 31.15 38.2992 31.15 38H28.85C28.85 39.3576 29.7199 40.4635 30.8415 41.3289C31.9854 42.2115 33.6007 43.0131 35.5703 43.7483C39.5223 45.2236 45.1751 46.5309 52.0805 47.6212C65.9095 49.8047 84.9723 51.15 106 51.15C127.028 51.15 146.091 49.8047 159.919 47.6212C166.825 46.5309 172.478 45.2236 176.43 43.7483C178.399 43.0131 180.015 42.2115 181.158 41.3289C182.28 40.4635 183.15 39.3576 183.15 38H180.85ZM190.75 52C190.75 52.2979 190.546 52.8495 189.51 53.6145C188.507 54.3555 186.949 55.1228 184.821 55.8831C180.581 57.3984 174.376 58.7847 166.624 59.9564C156.607 61.4707 144.099 62.6135 130.096 63.2316L131.508 65.67C145.058 65.0363 157.192 63.9106 166.998 62.4283C174.809 61.2476 181.199 59.8326 185.662 58.2373C187.887 57.4423 189.707 56.577 190.995 55.6254C192.251 54.6979 193.25 53.497 193.25 52H190.75ZM80.4923 65.67C66.9416 65.0363 54.8078 63.9106 45.002 62.4283C37.1907 61.2476 30.8014 59.8326 26.3376 58.2373C24.1133 57.4423 22.2927 56.577 21.0045 55.6254C19.749 54.6979 18.75 53.497 18.75 52H21.25C21.25 52.2979 21.4543 52.8495 22.4899 53.6145C23.493 54.3555 25.0515 55.1228 27.179 55.8831C31.4189 57.3984 37.6239 58.7847 45.3756 59.9564C55.3932 61.4707 67.9015 62.6135 81.904 63.2316L80.4923 65.67ZM72.2482 79.9092L70.0166 83.7635C58.6888 82.9489 48.4775 81.7605 39.9 80.2848C31.43 78.8275 24.4568 77.0744 19.5548 75.0805C17.1131 74.0873 15.0693 72.9888 13.6024 71.7554C12.1534 70.5372 11 68.9512 11 67H15C15 67.2579 15.1478 67.8288 16.1765 68.6937C17.1872 69.5435 18.7977 70.4543 21.062 71.3753C25.5721 73.2099 32.2185 74.9044 40.5782 76.3427C49.4963 77.877 60.2551 79.1015 72.2482 79.9092ZM141.983 83.7635L139.752 79.9092C151.745 79.1015 162.504 77.877 171.422 76.3427C179.782 74.9044 186.428 73.2099 190.938 71.3753C193.202 70.4543 194.813 69.5435 195.824 68.6937C196.852 67.8288 197 67.2579 197 67H201C201 68.9512 199.847 70.5372 198.398 71.7554C196.931 72.9888 194.887 74.0873 192.445 75.0805C187.543 77.0744 180.57 78.8275 172.1 80.2848C163.522 81.7605 153.311 82.9489 141.983 83.7635ZM62.8005 96.2271C52.7236 95.3505 43.6127 94.1779 35.8208 92.7754C26.8597 91.1624 19.7911 89.2708 15.0332 87.246C12.6423 86.2285 11.0048 85.2475 10.0131 84.3751C9.00662 83.4898 9 83.0285 9 83H3C3 85.4568 4.39249 87.422 6.05022 88.8802C7.72266 90.3513 10.0144 91.6309 12.6837 92.7668C18.0464 95.049 25.6225 97.0361 34.7579 98.6805C42.8459 100.136 52.2723 101.344 62.6657 102.238L62.4356 101.837C61.5471 100.29 61.5505 98.3862 62.4445 96.842L62.8005 96.2271ZM149.334 102.238L149.564 101.837C150.453 100.29 150.45 98.3862 149.555 96.842L149.199 96.2271C159.276 95.3505 168.387 94.1779 176.179 92.7754C185.14 91.1624 192.209 89.2708 196.967 87.246C199.358 86.2285 200.995 85.2475 201.987 84.3751C202.993 83.4898 203 83.0285 203 83H209C209 85.4568 207.608 87.422 205.95 88.8802C204.277 90.3513 201.986 91.6309 199.316 92.7668C193.954 95.049 186.377 97.0361 177.242 98.6805C169.154 100.136 159.728 101.344 149.334 102.238ZM70.444 115.784C59.1751 114.977 49.0468 113.8 40.5782 112.343C32.2185 110.904 25.5721 109.21 21.062 107.375C18.7977 106.454 17.1872 105.543 16.1765 104.694C15.1477 103.829 15 103.258 15 103H11C11 104.951 12.1534 106.537 13.6024 107.755C15.0693 108.989 17.113 110.087 19.5548 111.081C24.4568 113.074 31.43 114.828 39.8999 116.285C49.1846 117.882 60.3834 119.143 72.8405 119.957L70.444 115.784ZM139.16 119.957L141.556 115.784C152.825 114.977 162.953 113.8 171.422 112.343C179.782 110.904 186.428 109.21 190.938 107.375C193.202 106.454 194.813 105.543 195.824 104.694C196.852 103.829 197 103.258 197 103H201C201 104.951 199.847 106.537 198.398 107.755C196.931 108.989 194.887 110.087 192.445 111.081C187.543 113.074 180.57 114.828 172.1 116.285C162.815 117.882 151.617 119.143 139.16 119.957ZM79.8336 132.136C66.668 131.499 54.8968 130.396 45.3756 128.956C37.6239 127.785 31.4189 126.398 27.179 124.883C25.0515 124.123 23.493 123.355 22.4899 122.615C21.4543 121.849 21.25 121.298 21.25 121H18.75C18.75 122.497 19.749 123.698 21.0045 124.625C22.2927 125.577 24.1133 126.442 26.3376 127.237C30.8014 128.833 37.1907 130.248 45.002 131.428C55.0047 132.94 67.4299 134.081 81.3103 134.708L79.8336 132.136ZM130.69 134.708L132.166 132.136C145.332 131.499 157.103 130.396 166.624 128.956C174.376 127.785 180.581 126.398 184.821 124.883C186.949 124.123 188.507 123.355 189.51 122.615C190.546 121.849 190.75 121.298 190.75 121H193.25C193.25 122.497 192.251 123.698 190.995 124.625C189.707 125.577 187.887 126.442 185.662 127.237C181.199 128.833 174.809 130.248 166.998 131.428C156.995 132.94 144.57 134.081 130.69 134.708ZM180.85 136C180.85 136.299 180.657 136.811 179.753 137.508C178.873 138.188 177.502 138.893 175.625 139.594C171.886 140.99 166.409 142.268 159.561 143.349C145.883 145.509 126.946 146.85 106 146.85C85.0541 146.85 66.1169 145.509 52.4392 143.349C45.5914 142.268 40.1142 140.99 36.3746 139.594C34.4984 138.893 33.1275 138.188 32.2466 137.508C31.3434 136.811 31.15 136.299 31.15 136H28.85C28.85 137.358 29.7199 138.463 30.8415 139.329C31.9854 140.212 33.6007 141.013 35.5703 141.748C39.5223 143.224 45.1751 144.531 52.0805 145.621C65.9095 147.805 84.9723 149.15 106 149.15C127.028 149.15 146.091 147.805 159.919 145.621C166.825 144.531 172.478 143.224 176.43 141.748C178.399 141.013 180.015 140.212 181.158 139.329C182.28 138.463 183.15 137.358 183.15 136H180.85ZM169.995 151.671C170.765 150.987 171 150.428 171 150H173C173 151.229 172.312 152.288 171.323 153.166C170.331 154.048 168.925 154.852 167.208 155.59C163.767 157.069 158.849 158.378 152.848 159.469C140.829 161.654 124.266 163 106 163C87.7335 163 71.1708 161.654 59.1521 159.469C53.1509 158.378 48.2329 157.069 44.7917 155.59C43.0749 154.852 41.6691 154.048 40.6767 153.166C39.6883 152.288 39 151.229 39 150H41C41 150.428 41.2351 150.987 42.0051 151.671C42.771 152.351 43.9585 153.055 45.5815 153.752C48.8199 155.144 53.5674 156.421 59.5098 157.501C71.3784 159.659 87.8157 161 106 161C124.184 161 140.622 159.659 152.49 157.501C158.433 156.421 163.18 155.144 166.418 153.752C168.042 153.055 169.229 152.351 169.995 151.671ZM161.15 164C161.15 164.541 160.898 165.15 160.248 165.831C159.593 166.516 158.586 167.218 157.215 167.913C154.476 169.3 150.457 170.575 145.42 171.654C135.36 173.81 121.423 175.15 106 175.15C90.5774 175.15 76.6399 173.81 66.5801 171.654C61.5433 170.575 57.5241 169.3 54.7849 167.913C53.414 167.218 52.4066 166.516 51.7524 165.831C51.1018 165.15 50.85 164.541 50.85 164H49.15C49.15 165.116 49.6817 166.124 50.523 167.005C51.3608 167.883 52.5538 168.688 54.0166 169.429C56.9449 170.913 61.1268 172.224 66.2239 173.316C76.4322 175.504 90.4947 176.85 106 176.85C121.505 176.85 135.568 175.504 145.776 173.316C150.873 172.224 155.055 170.913 157.983 169.429C159.446 168.688 160.639 167.883 161.477 167.005C162.318 166.124 162.85 165.116 162.85 164H161.15ZM150.899 182.238C153.356 180.816 154.5 179.366 154.5 178H155.5C155.5 179.948 153.902 181.655 151.4 183.104C148.861 184.573 145.221 185.88 140.767 186.971C131.851 189.155 119.559 190.5 106 190.5C92.4411 190.5 80.1493 189.155 71.2328 186.971C66.7785 185.88 63.1386 184.573 60.6001 183.104C58.0981 181.655 56.5 179.948 56.5 178H57.5C57.5 179.366 58.6441 180.816 61.1012 182.238C63.5218 183.64 67.0578 184.919 71.4707 186C80.2888 188.159 92.497 189.5 106 189.5C119.503 189.5 131.711 188.159 140.529 186C144.942 184.919 148.478 183.64 150.899 182.238Z" fill="white"/>
<path d="M129.666 136.49L149.564 101.837C150.453 100.29 150.45 98.3862 149.555 96.842L129.669 62.4947C128.775 60.9507 127.126 60 125.342 60H86.6578C84.8736 60 83.2246 60.9507 82.3307 62.4947L62.4445 96.842C61.5505 98.3862 61.5471 100.29 62.4356 101.837L82.3337 136.49C83.2253 138.043 84.8791 139 86.6697 139H125.33C127.121 139 128.775 138.043 129.666 136.49Z" stroke="#FF3D4C" stroke-width="6"/>
<mask id="path-4-inside-1_47_59" fill="white">
<path fill-rule="evenodd" clip-rule="evenodd" d="M109.858 112.172C121.272 110.1 133 99.3286 133 99.3286C133 99.3286 121.199 88.7954 109.751 86.8284C112.015 90.3646 114.5 95.2531 114.5 99.6704C114.5 104.018 112.092 108.733 109.858 112.172ZM102.342 86.8949C90.9325 89.021 79 99.3286 79 99.3286C79 99.3286 90.8533 109.864 102.229 112.1C99.9434 108.668 97.5 103.988 97.5 99.6704C97.5 95.2808 100.025 90.4258 102.342 86.8949Z"/>
</mask>
<path fill-rule="evenodd" clip-rule="evenodd" d="M109.858 112.172C121.272 110.1 133 99.3286 133 99.3286C133 99.3286 121.199 88.7954 109.751 86.8284C112.015 90.3646 114.5 95.2531 114.5 99.6704C114.5 104.018 112.092 108.733 109.858 112.172ZM102.342 86.8949C90.9325 89.021 79 99.3286 79 99.3286C79 99.3286 90.8533 109.864 102.229 112.1C99.9434 108.668 97.5 103.988 97.5 99.6704C97.5 95.2808 100.025 90.4258 102.342 86.8949Z" fill="#FF3D4C"/>
<path d="M133 99.3286L133.676 100.065L134.49 99.3181L133.666 98.5826L133 99.3286ZM109.858 112.172L109.02 111.627L107.758 113.569L110.037 113.156L109.858 112.172ZM109.751 86.8284L109.921 85.8428L107.688 85.4592L108.909 87.3675L109.751 86.8284ZM79 99.3286L78.3463 98.5719L77.4827 99.3179L78.3357 100.076L79 99.3286ZM102.342 86.8949L103.178 87.4436L104.466 85.482L102.159 85.9118L102.342 86.8949ZM102.229 112.1L102.036 113.081L104.392 113.544L103.061 111.546L102.229 112.1ZM133 99.3286C132.324 98.5921 132.324 98.592 132.324 98.592C132.324 98.592 132.324 98.592 132.324 98.5921C132.323 98.5923 132.323 98.5926 132.323 98.5931C132.322 98.594 132.32 98.5956 132.317 98.5979C132.312 98.6024 132.305 98.6094 132.294 98.6189C132.273 98.6379 132.241 98.6668 132.198 98.7051C132.113 98.7815 131.985 98.8951 131.817 99.0412C131.481 99.3335 130.987 99.7554 130.357 100.269C129.097 101.297 127.298 102.689 125.149 104.145C120.826 107.072 115.18 110.189 109.679 111.188L110.037 113.156C115.951 112.082 121.875 108.777 126.27 105.801C128.479 104.305 130.326 102.875 131.621 101.819C132.269 101.29 132.78 100.855 133.13 100.55C133.306 100.397 133.441 100.277 133.533 100.195C133.579 100.154 133.614 100.122 133.638 100.1C133.65 100.089 133.659 100.081 133.666 100.075C133.669 100.072 133.671 100.07 133.673 100.068C133.674 100.067 133.675 100.067 133.675 100.066C133.676 100.066 133.676 100.066 133.676 100.066C133.676 100.065 133.676 100.065 133 99.3286ZM109.582 87.814C115.102 88.7623 120.775 91.7971 125.119 94.6518C127.28 96.0718 129.089 97.4317 130.356 98.4359C130.99 98.9377 131.487 99.35 131.825 99.6357C131.994 99.7785 132.122 99.8896 132.208 99.9643C132.251 100.002 132.283 100.03 132.305 100.049C132.315 100.058 132.323 100.065 132.328 100.069C132.33 100.071 132.332 100.073 132.333 100.074C132.334 100.074 132.334 100.075 132.334 100.075C132.334 100.075 132.334 100.075 132.334 100.075C132.334 100.075 132.334 100.075 133 99.3286C133.666 98.5826 133.666 98.5824 133.665 98.5822C133.665 98.5821 133.665 98.5819 133.665 98.5816C133.664 98.5811 133.664 98.5805 133.663 98.5797C133.661 98.578 133.658 98.5758 133.655 98.5729C133.649 98.5672 133.639 98.5589 133.627 98.5482C133.603 98.5268 133.567 98.4957 133.521 98.4554C133.428 98.3749 133.293 98.2578 133.116 98.1087C132.764 97.8106 132.25 97.3847 131.598 96.8683C130.295 95.836 128.438 94.4397 126.218 92.9804C121.799 90.0768 115.849 86.8614 109.921 85.8428L109.582 87.814ZM108.909 87.3675C111.16 90.8838 113.5 95.5616 113.5 99.6704H115.5C115.5 94.9447 112.87 89.8455 110.594 86.2893L108.909 87.3675ZM113.5 99.6704C113.5 103.709 111.237 108.213 109.02 111.627L110.697 112.716C112.947 109.252 115.5 104.327 115.5 99.6704H113.5ZM79 99.3286C79.6537 100.085 79.6536 100.085 79.6536 100.086C79.6536 100.085 79.6536 100.085 79.6537 100.085C79.6539 100.085 79.6542 100.085 79.6548 100.084C79.6559 100.084 79.6577 100.082 79.6602 100.08C79.6652 100.075 79.6731 100.069 79.6838 100.06C79.7052 100.041 79.7378 100.014 79.7813 99.977C79.8682 99.9037 79.9986 99.7947 80.1693 99.6546C80.5108 99.3745 81.0135 98.9699 81.6532 98.4769C82.9331 97.4904 84.7581 96.1525 86.9343 94.7495C91.3084 91.9296 97.013 88.9052 102.526 87.878L102.159 85.9118C96.262 87.0107 90.2953 90.2031 85.8506 93.0686C83.6175 94.5083 81.7462 95.8801 80.4323 96.8928C79.775 97.3994 79.2563 97.8167 78.9007 98.1085C78.7228 98.2544 78.5857 98.369 78.4923 98.4477C78.4456 98.4871 78.4098 98.5175 78.3854 98.5384C78.3731 98.5488 78.3637 98.5569 78.3572 98.5625C78.3539 98.5653 78.3514 98.5675 78.3496 98.5691C78.3487 98.5698 78.3479 98.5705 78.3474 98.5709C78.3471 98.5712 78.3468 98.5714 78.3467 98.5715C78.3465 98.5717 78.3463 98.5719 79 99.3286ZM102.422 111.119C96.9282 110.039 91.2525 106.933 86.9019 104.043C84.7376 102.605 82.9235 101.236 81.6513 100.226C81.0156 99.722 80.516 99.3082 80.1767 99.0217C80.0071 98.8784 79.8775 98.767 79.7911 98.6921C79.7479 98.6546 79.7155 98.6262 79.6943 98.6076C79.6836 98.5982 79.6758 98.5913 79.6708 98.5869C79.6683 98.5847 79.6665 98.5831 79.6654 98.5822C79.6649 98.5817 79.6645 98.5814 79.6643 98.5812C79.6643 98.5811 79.6643 98.5811 79.6642 98.5811C79.6643 98.5811 79.6643 98.5812 79 99.3286C78.3357 100.076 78.3358 100.076 78.3361 100.076C78.3362 100.077 78.3365 100.077 78.3367 100.077C78.3373 100.078 78.338 100.078 78.3389 100.079C78.3407 100.081 78.3432 100.083 78.3465 100.086C78.353 100.091 78.3623 100.1 78.3744 100.11C78.3987 100.132 78.4343 100.163 78.4807 100.203C78.5734 100.283 78.7097 100.401 78.8864 100.55C79.2397 100.848 79.7551 101.275 80.4083 101.793C81.7141 102.829 83.5742 104.233 85.7952 105.709C90.2152 108.645 96.1538 111.925 102.036 113.081L102.422 111.119ZM103.061 111.546C100.792 108.138 98.5 103.672 98.5 99.6704H96.5C96.5 104.304 99.0949 109.198 101.396 112.654L103.061 111.546ZM98.5 99.6704C98.5 95.5963 100.874 90.9555 103.178 87.4436L101.506 86.3462C99.1769 89.896 96.5 94.9652 96.5 99.6704H98.5Z" fill="#FF3D4C" mask="url(#path-4-inside-1_47_59)"/>
</svg>
